<svg style="position: absolute; width: 0; height: 0; overflow: hidden;" aria-hidden="true" version="1.1" xmlns="http://www.w3.org/2000/svg" xmlns:xlink="http://www.w3.org/1999/xlink">
    <defs>
        <symbol id="logo" viewBox="0 0 100 30" fill="none" clip-rule="evenodd" fill-rule="evenodd">
            <path fill="#ff6b0a" d="M100 0H55.8145v30H100zM69.7685 8.2602v6.5436 6.5128c0 0.0139 3e-4 0.0278 7e-4 0.0417v0 1e-4c7e-4 0.0275 14e-4 0.0548-7e-4 0.0815-62e-4 0.0754 0.0139 0.1201 0.1007 0.1078 0.0206-21e-4 0.0412-14e-4 0.0619-7e-4 0.0103 3e-4 0.0206 7e-4 0.031 7e-4 0.3658 0 0.7318 1e-4 1.0979 3e-4h27e-4c0.7317 3e-4 1.4639 7e-4 2.196-3e-4 0.0231 0 0.0436 2e-4 0.0616 4e-4 0.0705 9e-4 0.1048 13e-4 0.1211-0.0156 0.0154-0.016 0.0148-0.0475 0.0134-0.1089v-1e-4c-4e-4-0.0208-9e-4-0.0449-9e-4-0.073V8.2787c0-0.0103-4e-4-0.0206-7e-4-0.0308-7e-4-0.0206-14e-4-0.0411 7e-4-0.0616 77e-4-0.077-0.0186-0.1171-0.1022-0.1078-0.0165 2e-3-0.0337 13e-4-0.051 6e-4l-1e-4 0c-87e-4-3e-4-0.0176-6e-4-0.0264-6e-4-0.3694 0-0.7389-2e-4-1.1086-4e-4l-1e-4 0-2e-4 0c-0.7397-3e-4-1.4795-7e-4-2.2187 4e-4-0.0219 0-0.0412-3e-4-0.0581-6e-4-0.061-9e-4-0.0916-14e-4-0.1067 0.0137C69.7665 8.1068 69.767 8.1378 69.7679 8.2c3e-4 0.0175 6e-4 0.0374 6e-4 0.0602zM88.124 8.0789l-5.497 0c-1.8319 0-3.6637 0-5.494-15e-4l-0.0203 1e-4-0.0213 2e-4c-0.0273 3e-4-0.0544 7e-4-0.0823-3e-4-0.0619-31e-4-0.0836 0.0261-0.0789 0.0831 1e-3 0.0174 7e-4 0.0341 3e-4 0.0511-2e-4 85e-4-3e-4 0.0171-3e-4 0.0259v3.1263l-1e-4 0.0324c-3e-4 0.0671-5e-4 0.1001 0.0159 0.1162 0.016 0.0157 0.0477 0.0155 0.1102 0.0149l0.0428-2e-4h3.453c0.1128 0 0.1685 0 0.1961 0.0278 0.0269 0.0273 0.0269 0.0812 0.0269 0.1878v9.6391c0 0.0185-2e-4 0.0349-4e-4 0.0495v0c-8e-4 0.0553-12e-4 0.0842 0.013 0.0993 0.0156 0.0165 0.049 0.0164 0.1189 0.0161l0.0342-1e-4h0.0465 3.2672c0.104 0 0.1554 0 0.1809-0.0258 0.0251-0.0252 0.0251-0.0753 0.0251-0.1744v-9.6392c0-0.0209-3e-4-0.0394-6e-4-0.0557-9e-4-0.0595-14e-4-0.0905 0.0139-0.1065 0.0165-0.0174 0.0516-0.0171 0.1249-0.0166l0.046 2e-4h3.5151c0.1517 0 0.1517 0 0.1533-0.1494V11.333 8.2683c0-0.0213 2e-4-0.0402 4e-4-0.057v-2e-4c8e-4-0.0677 12e-4-0.1013-0.0154-0.1178-0.0164-0.0162-0.0494-0.0158-0.1149-0.0149-0.0173 2e-4-0.0369 5e-4-0.0591 5e-4z" />
            <path fill="#010101" d="M44.186 0H0v30h44.186l11.6279-15zM19.4552 12.8078c0.0667 0.0542 0.1339 0.1086 0.2019 0.1632 0.0452-0.0275 0.0731-0.0651 0.0994-0.1005v0c61e-4-82e-4 0.0122-0.0164 0.0183-0.0243 0.2385-0.2833 0.4754-0.5682 0.7123-0.8531 0.4754-0.5683 0.9492-1.1366 1.4231-1.7064 0.0944-0.114 0.0913-0.1663-0.0171-0.2587-0.0851-0.0739-0.1719-0.1463-0.2601-0.2187-0.7526-0.616-1.5795-1.0965-2.5163-1.3753-0.6256-0.1848-1.2651-0.2864-1.9154-0.3311-0.8486-0.057-1.6894-0.0292-2.5225 0.1633-2.9173 0.6714-5.0944 3.0862-5.3499 6.1817-0.0681 0.8347-31e-4 1.6617 0.2106 2.4733 0.4862 1.8373 1.5422 3.2449 3.2192 4.172 0.9136 0.5051 1.9031 0.7715 2.9437 0.8547 0.881 0.0708 1.7528 0.0169 2.6138-0.1771 1.4555-0.328 2.7423-0.9903 3.8866-1.9374 0.0914-0.0754 0.1285-0.1509 0.1285-0.271-37e-4-1.4736-34e-4-2.9481-32e-4-4.4221l1e-4-1.1051c0-0.0192-13e-4-0.0386-26e-4-0.058-3e-3-0.0431-6e-3-0.086 57e-4-0.1253 0.0136-0.0456-0.011-0.0718-0.0349-0.0972-0.0198-0.021-0.0391-0.0416-0.0363-0.0722 62e-4-0.0508-0.0279-0.0585-0.0681-0.0585h-0.1084-6.0375c-0.0118 0-0.0238 3e-4-0.0358 6e-4-0.0243 7e-4-0.0488 14e-4-0.0726-6e-4-0.0619-62e-4-0.082 0.0246-0.0774 0.0816 21e-4 0.0237 14e-4 0.048 7e-4 0.0721-4e-4 0.012-7e-4 0.0239-7e-4 0.0357 0 0.3234-2e-4 0.6468-3e-4 0.9702-4e-4 0.6468-7e-4 1.2937 3e-4 1.9405 0 0.0267-5e-4 0.0498-9e-4 0.0696-13e-4 0.0592-19e-4 0.0896 0.013 0.1051 0.0157 0.0163 0.0489 0.0159 0.1173 0.0151h1e-4c0.017-2e-4 0.0362-4e-4 0.0579-4e-4h2.4311c0.0214 0 0.0404-2e-4 0.0572-4e-4 0.0674-8e-4 0.1001-12e-4 0.1158 0.0149 0.0147 0.0153 0.0142 0.0453 0.0133 0.1036-3e-4 0.0206-7e-4 0.0447-5e-4 0.0729 1e-3 0.1406 7e-4 0.2805 3e-4 0.4206-2e-4 0.0702-3e-4 0.1404-3e-4 0.2108v51e-4c0 0.2891 0 0.2913-0.2617 0.4168-0.7665 0.3666-1.5764 0.4713-2.4125 0.3666-0.9291-0.1155-1.6724-0.5544-2.2174-1.3137-0.3546-0.4943-0.5482-1.0518-0.621-1.6524-0.0913-0.767 16e-4-1.5047 0.35-2.2008 0.4196-0.8362 1.0545-1.4368 1.9665-1.7125 0.6396-0.194 1.2868-0.1432 1.9279-31e-4 0.5807 0.1263 1.087 0.4097 1.5531 0.7654 0.1708 0.1291 0.3368 0.2636 0.5054 0.4003l2e-4 2e-4zM36.6544 10.014c-1.4323-1.3028-3.1387-1.9235-4.9024-1.9373-0.8145 15e-4-1.4231 0.0677-2.0688 0.2356-1.8736 0.4882-3.34 1.5354-4.314 3.2079-1.0003 1.7156-1.2032 3.556-0.6442 5.4487 0.6256 2.116 1.9588 3.656 4.0214 4.5138 1.5841 0.6576 3.2254 0.7454 4.8808 0.3111 1.9231-0.5036 3.3973-1.617 4.3635-3.3542 0.8145-1.4646 1.0328-3.0354 0.7293-4.6756-0.2725-1.4738-0.9538-2.7366-2.0656-3.75zM28.7448 13.322c0.6241-1.1504 1.6213-1.7017 2.5891-1.7233 1.9634-46e-4 3.2471 1.0996 3.5971 2.6304 0.2121 0.9225 0.1176 1.8188-0.3361 2.6566-0.5342 0.9841-1.3673 1.557-2.4883 1.6848-1.084 0.1247-2.0301-0.1817-2.8028-0.961-0.4955-0.499-0.7943-1.1073-0.9213-1.7941-0.161-0.8701-0.0619-1.7126 0.3623-2.4934z" />
        </symbol>
        <symbol id="error" viewBox="0 0 24 24">
            <g clip-path="url(#clip0_602_57)">
                <path d="M6.81 0.219C6.9506 0.0788 7.141 0 7.3395 0h9.321c0.1985 0 0.3889 0.0788 0.5295 0.219l6.591 6.591C23.9212 6.9506 24 7.141 24 7.3395v9.321c0 0.1985-0.0788 0.3889-0.219 0.5295l-6.591 6.591C17.0494 23.9212 16.859 24 16.6605 24h-9.321C7.141 24 6.9506 23.9212 6.81 23.781L0.219 17.19C0.0788 17.0494 0 16.859 0 16.6605v-9.321C0 7.141 0.0788 6.9506 0.219 6.81zM7.65 1.5 1.5 7.65v8.7l6.15 6.15h8.7l6.15-6.15v-8.7L16.35 1.5z" />
                <path d="M6.969 6.9691c0.0697-0.0698 0.1524-0.1252 0.2435-0.1631C7.3037 6.7682 7.4014 6.7488 7.5 6.7488c0.0987 0 0.1963 0.0194 0.2874 0.0572 0.0912 0.0379 0.1739 0.0933 0.2436 0.1631L12 10.9396l3.969-3.9705c0.0697-0.0697 0.1525-0.125 0.2436-0.1628 0.0911-0.0377 0.1888-0.0571 0.2874-0.0571 0.0986 0 0.1963 0.0194 0.2874 0.0571 0.0911 0.0378 0.1739 0.0931 0.2436 0.1628 0.0697 0.0697 0.125 0.1525 0.1628 0.2436 0.0377 0.0911 0.0571 0.1888 0.0571 0.2874 0 0.0986-0.0194 0.1963-0.0571 0.2874-0.0378 0.0911-0.0931 0.1739-0.1628 0.2436l-3.9705 3.969 3.9705 3.969c0.0697 0.0698 0.125 0.1525 0.1628 0.2436 0.0377 0.0912 0.0571 0.1888 0.0571 0.2874s-0.0194 0.1963-0.0571 0.2874c-0.0378 0.0911-0.0931 0.1739-0.1628 0.2436-0.0697 0.0698-0.1525 0.1251-0.2436 0.1628s-0.1888 0.0572-0.2874 0.0572-0.1963-0.0195-0.2874-0.0572-0.1739-0.093-0.2436-0.1628L12 13.0606 8.031 17.0311c-0.0697 0.0698-0.1525 0.1251-0.2436 0.1628-0.0911 0.0377-0.1888 0.0572-0.2874 0.0572-0.0986 0-0.1963-0.0195-0.2874-0.0572-0.0911-0.0377-0.1739-0.093-0.2436-0.1628-0.0697-0.0697-0.1251-0.1525-0.1628-0.2436-0.0377-0.0911-0.0572-0.1888-0.0572-0.2874 0-0.0986 0.0195-0.1962 0.0572-0.2874 0.0377-0.0911 0.0931-0.1738 0.1628-0.2436l3.9705-3.969-3.9705-3.969C6.8992 7.9615 6.8437 7.8787 6.8059 7.7876 6.7681 7.6965 6.7487 7.5988 6.7487 7.5001c0-0.0986 0.0194-0.1963 0.0572-0.2874 0.0378-0.0912 0.0932-0.1739 0.1631-0.2436z" />
            </g>
            <defs>
                <clipPath id="clip0_602_57">
                    <rect width="24" height="24" />
                </clipPath>
            </defs>
        </symbol>
        <symbol id="success" viewBox="0 0 24 24">
            <path d="M3.75 12c-2e-4-1.4482 0.3808-2.8711 1.1048-4.1254 0.724-1.2543 1.7655-2.296 3.0197-3.0202 1.2542-0.7243 2.6769-1.1056 4.1252-1.1056 1.4483-1e-4 2.8711 0.3811 4.1253 1.1052 0.1722 0.0979 0.3761 0.1238 0.5672 0.0719 0.1911-0.0519 0.354-0.1773 0.453-0.3488 0.099-0.1716 0.1262-0.3753 0.0756-0.5667-0.0506-0.1915-0.1749-0.3552-0.3458-0.4554-1.8587-1.0731-4.0196-1.5029-6.1475-1.2228-2.1279 0.2801-4.1039 1.2545-5.6216 2.7721-1.5176 1.5176-2.4922 3.4935-2.7724 5.6214-0.2803 2.1279 0.1494 4.2888 1.2225 6.1476 1.073 1.8587 2.7293 3.3115 4.7121 4.133s4.1813 0.9658 6.2545 0.4105 3.9052-1.7791 5.2119-3.4817C21.0413 16.2325 21.7497 14.1463 21.75 12c0-0.1989-0.079-0.3896-0.2197-0.5303C21.3897 11.3291 21.1989 11.25 21 11.25s-0.3897 0.0791-0.5303 0.2197C20.329 11.6104 20.25 11.8011 20.25 12c0 2.1881-0.8692 4.2865-2.4164 5.8337C16.2865 19.3809 14.188 20.25 12 20.25c-2.188 0-4.2864-0.8691-5.8336-2.4163C4.6192 16.2865 3.75 14.1881 3.75 12z" />
            <path d="M23.031 5.031c0.0697-0.0698 0.125-0.1525 0.1628-0.2437 0.0377-0.0911 0.0571-0.1887 0.0571-0.2873 0-0.0987-0.0194-0.1963-0.0571-0.2874-0.0378-0.0911-0.0931-0.1739-0.1628-0.2436-0.0698-0.0698-0.1525-0.1251-0.2437-0.1628C22.6962 3.7685 22.5986 3.749 22.5 3.749c-0.0986 0-0.1963 0.0194-0.2874 0.0572-0.0911 0.0377-0.1739 0.093-0.2436 0.1628L12 13.9395 8.031 9.969C7.9612 9.8992 7.8785 9.8439 7.7874 9.8062 7.6962 9.7685 7.5986 9.749 7.5 9.749c-0.0986 0-0.1963 0.0194-0.2874 0.0572C7.1215 9.8439 7.0387 9.8992 6.969 9.969c-0.0698 0.0697-0.1251 0.1525-0.1628 0.2436C6.7685 10.3037 6.749 10.4014 6.749 10.5c0 0.0986 0.0194 0.1962 0.0572 0.2873 0.0377 0.0912 0.093 0.1739 0.1628 0.2437l4.5 4.5c0.0696 0.0698 0.1524 0.1252 0.2435 0.163S11.9013 15.7513 12 15.7513c0.0986 0 0.1963-0.0195 0.2874-0.0573s0.1739-0.0932 0.2436-0.163z" />
        </symbol>
    </defs>
</svg>